<svg data-name="001-facebook" xmlns="http://www.w3.org/2000/svg" width="23.893" height="23.893"><path data-name="Path 64" d="M13.873 23.738q-.149.024-.3.045.151-.021.3-.045zm0 0" fill="#4267b2"/><path data-name="Path 65" d="M14.112 23.697l-.143.025zm0 0" fill="#4267b2"/><path data-name="Path 66" d="M13.307 23.816q-.175.02-.351.035.176-.015.351-.035zm0 0" fill="#4267b2"/><path data-name="Path 67" d="M13.536 23.788l-.168.021zm0 0" fill="#4267b2"/><path data-name="Path 68" d="M14.437 23.633l-.126.026zm0 0" fill="#4267b2"/><path data-name="Path 69" d="M15.244 23.432l-.1.028zm0 0" fill="#4267b2"/><path data-name="Path 70" d="M15 23.499l-.111.029zm0 0" fill="#4267b2"/><path data-name="Path 71" d="M14.681 23.579l-.118.026zm0 0" fill="#4267b2"/><path data-name="Path 72" d="M12.951 23.851l-.189.014zm0 0" fill="#4267b2"/><path data-name="Path 73" d="M23.893 11.947a11.947 11.947 0 10-11.946 11.946h.21v-9.3H9.59V11.6h2.567V9.4a3.593 3.593 0 013.836-3.942 21.128 21.128 0 012.3.118v2.666h-1.57c-1.239 0-1.479.589-1.479 1.453V11.6h2.962l-.386 2.991h-2.576v8.841a11.953 11.953 0 008.649-11.485zm0 0" fill="#4267b2"/><path data-name="Path 74" d="M12.736 23.867zm0 0" fill="#4267b2"/><path data-name="Path 75" d="M12.353 23.886h-.2zm0 0" fill="#4267b2"/></svg>