<svg xmlns="http://www.w3.org/2000/svg" width="80.195" height="83.637"><g data-name="Group 1085" transform="translate(-180 -1281.363)"><circle data-name="Ellipse 133" cx="31" cy="31" r="31" transform="translate(180 1303)" fill="#fff"/><path data-name="Path 162" d="M220.59 1344.333c-2.023.089-3.981.172-5.609.172-9.857 0-17.847-9.478-17.847-21.17s7.991-21.17 17.847-21.17c1.54 0 3.365.1 5.382.209-8.668 1.446-15.342 10.281-15.342 20.96 0 10.775 6.79 19.67 15.569 20.999zm29.773-32.058c-2.848-2.732-4.182-6.454-4.506-15.507a23.906 23.906 0 013.456.613 27.657 27.657 0 00-11.828-4.2c.531 14.843 3.777 15.358 11.962 20.668.317-.517.625-1.041.916-1.574z" fill="#cee1f2"/><path data-name="Path 163" d="M239.846 1347.071c-1.539 0-3.544-.087-5.666-.179-2.318-.1-4.715-.205-6.7-.206h-.014c-1.96 0-4.25.1-6.465.2-2.187.1-4.253.187-6.016.187a18.975 18.975 0 01-14.585-7.115 25.733 25.733 0 01-5.832-16.624 25.733 25.733 0 015.832-16.623 18.975 18.975 0 0114.582-7.113c1.641 0 3.586.107 5.645.22 2.508.138 5.352.294 8.262.294a2.566 2.566 0 010 5.132c-3.051 0-5.969-.16-8.543-.3-2.073-.114-3.864-.212-5.364-.212-8.426 0-15.281 8.346-15.281 18.6s6.855 18.6 15.281 18.6c1.65 0 3.661-.088 5.791-.182 2.27-.1 4.618-.2 6.69-.2h.016c2.1 0 4.552.107 6.924.21 2.065.09 4.016.175 5.444.175 7.633 0 14.183-6.748 15.235-15.7a2.568 2.568 0 015.1.6 24.464 24.464 0 01-6.69 14.346 19.155 19.155 0 01-13.646 5.89zm17.446-27.834a5.005 5.005 0 002.871-4.288c.536-11.638-5.692-17.668-11.011-20.678a30.531 30.531 0 00-11.467-3.646 2.566 2.566 0 00-2.764 2.65c.253 7.082 1.108 11.235 2.951 14.337 1.873 3.152 4.578 4.854 8 7.008 1.781 1.12 3.8 2.39 6.129 4.114a5.131 5.131 0 003.054 1.008 5.194 5.194 0 002.237-.505zm-2.256-4.524zm-8.412-15.976c5.884 3.33 8.716 8.666 8.417 15.861-2.479-1.835-4.58-3.156-6.435-4.322-5.651-3.553-7.726-4.862-8.391-14.019a25.014 25.014 0 016.409 2.479zm-9.41-16.017a2.566 2.566 0 00-3.472-1.057c-6.675 3.571-8.281 10.7-8.487 11.742a2.98 2.98 0 00-.058.541 2.565 2.565 0 005.09.45c.01-.056 1.067-5.637 5.867-8.2a2.566 2.566 0 001.053-3.473z" fill="#0023c4"/><path data-name="Path 164" d="M240.981 1333.463a3.208 3.208 0 11-3.208-3.208 3.208 3.208 0 013.208 3.208zm-3.461-11.419a3.208 3.208 0 11-3.208-3.208 3.208 3.208 0 013.208 3.208zm0 0a3.208 3.208 0 11-3.208-3.208 3.208 3.208 0 013.208 3.208zm8.211-.257a3.208 3.208 0 103.208 3.208 3.208 3.208 0 00-3.211-3.204zm-16.166 8.725a3.208 3.208 0 11-3.208-3.208 3.208 3.208 0 013.205 3.208zm-3.464-11.547a3.208 3.208 0 11-3.208-3.208 3.208 3.208 0 013.205 3.208zm0 0a3.208 3.208 0 11-3.208-3.208 3.208 3.208 0 013.205 3.208z" fill="#ff5cf3"/></g></svg>