<svg data-name="011-instagram" xmlns="http://www.w3.org/2000/svg" width="23.893" height="23.893"><defs><linearGradient id="a" x1=".5" x2=".5" y2="1" gradientUnits="objectBoundingBox"><stop offset="0" stop-color="#cc2f82"/><stop offset="1" stop-color="#f1782a"/></linearGradient></defs><path data-name="Path 78" d="M211.573 209.287a2.287 2.287 0 11-2.286-2.287 2.287 2.287 0 012.286 2.287zm0 0" transform="translate(-197.34 -197.34)" fill="url(#a)"/><path data-name="Path 79" d="M146.457 137.067a2.272 2.272 0 00-1.3-1.3 3.8 3.8 0 00-1.274-.236c-.724-.033-.94-.04-2.772-.04s-2.049.007-2.772.04a3.8 3.8 0 00-1.274.236 2.273 2.273 0 00-1.3 1.3 3.8 3.8 0 00-.236 1.274c-.033.723-.04.94-.04 2.772s.007 2.049.04 2.772a3.8 3.8 0 00.236 1.274 2.272 2.272 0 001.3 1.3 3.791 3.791 0 001.274.236c.723.033.94.04 2.772.04s2.049-.007 2.772-.04a3.791 3.791 0 001.274-.236 2.272 2.272 0 001.3-1.3 3.8 3.8 0 00.236-1.274c.033-.724.04-.94.04-2.772s-.007-2.049-.04-2.772a3.791 3.791 0 00-.236-1.274zm-5.348 7.568a3.523 3.523 0 113.523-3.523 3.523 3.523 0 01-3.523 3.523zm3.662-6.361a.823.823 0 11.823-.823.823.823 0 01-.823.823zm0 0" transform="translate(-129.162 -129.166)" fill="url(#a)"/><path data-name="Path 80" d="M11.947 0a11.947 11.947 0 1011.946 11.947A11.948 11.948 0 0011.947 0zm6.819 14.775a5.033 5.033 0 01-.319 1.665 3.508 3.508 0 01-2.006 2.006 5.036 5.036 0 01-1.665.319c-.732.033-.965.041-2.828.041s-2.1-.008-2.828-.041a5.036 5.036 0 01-1.665-.319 3.508 3.508 0 01-2.008-2.006 5.032 5.032 0 01-.319-1.665c-.034-.732-.042-.965-.042-2.828s.008-2.1.041-2.828a5.034 5.034 0 01.319-1.665 3.51 3.51 0 012.007-2.007 5.038 5.038 0 011.665-.319c.732-.033.965-.041 2.828-.041s2.1.008 2.828.042a5.039 5.039 0 011.665.318 3.509 3.509 0 012.006 2.006 5.033 5.033 0 01.319 1.665c.033.732.041.965.041 2.828s-.005 2.097-.04 2.829zm0 0" fill="url(#a)"/></svg>