<svg xmlns="http://www.w3.org/2000/svg" width="197" height="89"><g data-name="Group 1087"><path data-name="Rectangle 810" fill="#fff" d="M0 0h197v89H0z"/><path data-name="Path 166" d="M69.6 57h11.64v-4H74V29h-4.4zm17.6-21.56c0-2 .88-2.76 2.28-2.76s2.28.76 2.28 2.76v15.12c0 2-.88 2.76-2.28 2.76s-2.28-.76-2.28-2.76zm-4.4 14.84c0 4.48 2.36 7.04 6.68 7.04s6.68-2.56 6.68-7.04V35.72c0-4.48-2.36-7.04-6.68-7.04s-6.68 2.56-6.68 7.04zm22.8-4.88h2v5.16c0 2-.88 2.72-2.28 2.72s-2.28-.72-2.28-2.72V35.44c0-2 .88-2.76 2.28-2.76s2.28.76 2.28 2.76v3h4.16v-2.72c0-4.48-2.24-7.04-6.56-7.04s-6.56 2.56-6.56 7.04v14.56c0 4.48 2.24 7.04 6.56 7.04s6.56-2.56 6.56-7.04V41.4h-6.16zm13.04-9.96c0-2 .88-2.76 2.28-2.76s2.28.76 2.28 2.76v15.12c0 2-.88 2.76-2.28 2.76s-2.28-.76-2.28-2.76zm-4.4 14.84c0 4.48 2.36 7.04 6.68 7.04s6.68-2.56 6.68-7.04V35.72c0-4.48-2.36-7.04-6.68-7.04s-6.68 2.56-6.68 7.04z" fill="#1e1e3a"/></g></svg>