<svg xmlns="http://www.w3.org/2000/svg" width="162" height="73"><g data-name="Group 1081"><g data-name="Group 1086"><path data-name="Rectangle 1066" fill="#1e1e3a" d="M0 0h162v73H0z"/><path data-name="Path 165" d="M57.32 47h9.6v-3.3h-5.97V23.9h-3.63zm14.52-17.787c0-1.65.726-2.277 1.881-2.277s1.881.627 1.881 2.277v12.474c0 1.65-.726 2.277-1.881 2.277s-1.881-.627-1.881-2.277zm-3.63 12.243c0 3.7 1.947 5.808 5.511 5.808s5.511-2.112 5.511-5.808V29.444c0-3.7-1.947-5.808-5.511-5.808s-5.511 2.112-5.511 5.808zm18.81-4.026h1.65v4.257c0 1.65-.726 2.244-1.881 2.244s-1.881-.594-1.881-2.244V29.213c0-1.65.726-2.277 1.881-2.277s1.881.627 1.881 2.277v2.475h3.43v-2.244c0-3.7-1.848-5.808-5.412-5.808s-5.412 2.112-5.412 5.808v12.012c0 3.7 1.848 5.808 5.412 5.808s5.412-2.112 5.412-5.808V34.13h-5.08zm10.758-8.217c0-1.65.726-2.277 1.881-2.277s1.881.627 1.881 2.277v12.474c0 1.65-.726 2.277-1.881 2.277s-1.881-.627-1.881-2.277zm-3.63 12.243c0 3.7 1.947 5.808 5.511 5.808s5.511-2.112 5.511-5.808V29.444c0-3.7-1.947-5.808-5.511-5.808s-5.511 2.112-5.511 5.808z" fill="#fff"/></g></g></svg>