<svg data-name="008-youtube" xmlns="http://www.w3.org/2000/svg" width="23.893" height="23.893"><path data-name="Path 76" d="M10.459 14.185l3.887-2.239-3.886-2.238zm0 0" fill="#fc0000"/><path data-name="Path 77" d="M11.947 0a11.947 11.947 0 1011.946 11.947A11.948 11.948 0 0011.947 0zm7.465 11.959a19.718 19.718 0 01-.312 3.591 1.871 1.871 0 01-1.316 1.316 45.407 45.407 0 01-5.842.308 43.782 43.782 0 01-5.842-.32 1.871 1.871 0 01-1.316-1.316 19.631 19.631 0 01-.308-3.591 19.7 19.7 0 01.308-3.591 1.909 1.909 0 011.321-1.328 45.407 45.407 0 015.842-.308 43.689 43.689 0 015.842.32A1.871 1.871 0 0119.1 8.356a18.711 18.711 0 01.307 3.6zm0 0" fill="#fc0000"/></svg>